<svg xmlns="http://www.w3.org/2000/svg" width="64" height="64" viewBox="0 0 64 64"><title>chr</title><path d="M58.85,9.17H5.15A4.15,4.15,0,0,0,1,13.32V50.68a4.15,4.15,0,0,0,4.15,4.15h53.7A4.15,4.15,0,0,0,63,50.68V13.32A4.15,4.15,0,0,0,58.85,9.17ZM30.68,29.23H26.34l-.5,4.84h3.83a2.5,2.5,0,1,1,0,5H25.33l-.45,4.35a2.49,2.49,0,0,1-2.49,2.24h-.26a2.49,2.49,0,0,1-2.22-2.74l.39-3.84H15.49L15,43.42a2.49,2.49,0,0,1-2.49,2.24h-.26a2.5,2.5,0,0,1-2.23-2.74l.4-3.84H6.64a2.5,2.5,0,0,1,0-5H11l.5-4.84H7.65a2.5,2.5,0,0,1,0-5H12l.45-4.35a2.5,2.5,0,0,1,5,.51L17,24.23h4.81l.45-4.35a2.5,2.5,0,1,1,5,.51l-.39,3.84h3.82a2.5,2.5,0,0,1,0,5Zm26.68,4.92H49.1l-1,9.27a2.5,2.5,0,0,1-2.49,2.24H45.4a2.5,2.5,0,0,1-2.23-2.74l.91-8.76H36.33a2.5,2.5,0,0,1,0-5h8.26l1-9.27a2.5,2.5,0,1,1,5,.51l-.9,8.76h7.74a2.5,2.5,0,0,1,0,5Z" fill="#fff"/><polygon points="16 34.07 20.82 34.07 21.32 29.23 16.5 29.23 16 34.07" fill="#fff"/></svg>