<?xml version="1.0" encoding="utf-8"?>
<!-- Generator: Adobe Illustrator 23.0.1, SVG Export Plug-In . SVG Version: 6.00 Build 0)  -->
<svg version="1.1" id="Layer_1" xmlns="http://www.w3.org/2000/svg" xmlns:xlink="http://www.w3.org/1999/xlink" x="0px" y="0px"
	 viewBox="0 0 64 64" style="enable-background:new 0 0 64 64;" xml:space="preserve">
<style type="text/css">
	.st0{fill:none;stroke:#FFFFFF;stroke-width:2;stroke-linejoin:round;}
	.st1{fill:#FFFFFF;}
</style>
<path id="outline" class="st0" d="M12,4h40c4.4,0,8,3.6,8,8v40c0,4.4-3.6,8-8,8H12c-4.4,0-8-3.6-8-8V12C4,7.6,7.6,4,12,4z"/>
<path id="button_lock" class="st1" d="M52,4H12c-4.4,0-8,3.6-8,8v40c0,4.4,3.6,8,8,8h40c4.4,0,8-3.6,8-8V12C60,7.6,56.4,4,52,4z
	 M48.5,50.4c0,1.6-1,3-2.3,3H17.9c-1.3,0-2.3-1.3-2.3-3V30.8c0-1.6,1-3,2.3-3h0.8V24c0-7.2,5.7-13.3,12.9-13.4c0.2,0,0.6,0,0.8,0
	c7.2,0.1,12.9,6.2,12.9,13.4v3.9h0.8c1.3,0,2.3,1.3,2.3,3V50.4z M32,16.1c-4.3,0-7.8,3.6-7.8,7.9v3.9h7.4h0.8h7.4h0V24
	C39.8,19.7,36.3,16.1,32,16.1z M32.4,34.5c-0.2,0-0.6,0-0.8,0c-1.8,0.1-3.3,1.7-3.3,3.6c0,1,0.4,1.9,1,2.5v5.9
	c0,0.7,0.6,1.3,1.2,1.3h2.8c0.7,0,1.2-0.6,1.2-1.3v-5.9c0.7-0.6,1-1.5,1-2.5C35.7,36.2,34.2,34.6,32.4,34.5z"/>
</svg>
