<?xml version="1.0" encoding="utf-8"?>
<svg width="64" height="64" version="1.1" viewBox="0 0 64 64" xmlns="http://www.w3.org/2000/svg">
<path id="outline" d="M12,4 L52,4 A8,8 90 0,1 60,12 L60,52 A8,8 90 0,1 52,60 L12,60 A8,8 90 0,1 4,52 L4,12 A8,8 90 0,1 12,4Z"  fill="none" stroke="#fff" stroke-linejoin="round" stroke-width="2"/>
<path id="button_lock" fill="#FFFFFF" d="M52,4H12c-4.4,0-8,3.6-8,8v40c0,4.4,3.6,8,8,8h40c4.4,0,8-3.6,8-8V12C60,7.6,56.4,4,52,4z
	 M48.5,50.4c0,1.6-1,3-2.3,3H17.9c-1.3,0-2.3-1.3-2.3-3V30.8c0-1.6,1-3,2.3-3h0.8V24c0-7.2,5.7-13.3,12.9-13.4c0.2,0,0.6,0,0.8,0
	c7.2,0.1,12.9,6.2,12.9,13.4v3.9h0.8c1.3,0,2.3,1.3,2.3,3v19.5H48.5z M32,16.1c-4.3,0-7.8,3.6-7.8,7.9v3.9h7.4h0.8h7.4l0,0V24
	C39.8,19.7,36.3,16.1,32,16.1z M32.4,34.5c-0.2,0-0.6,0-0.8,0c-1.8,0.1-3.3,1.7-3.3,3.6c0,1,0.4,1.9,1,2.5v5.9
	c0,0.7,0.6,1.3,1.2,1.3h2.8c0.7,0,1.2-0.6,1.2-1.3v-5.9c0.7-0.6,1-1.5,1-2.5C35.7,36.2,34.2,34.6,32.4,34.5z"/>
</svg>
