<svg xmlns="http://www.w3.org/2000/svg" width="64" height="64" viewBox="0 0 64 64"><title>coin</title><path d="M32,.5A31.5,31.5,0,1,0,63.5,32,31.53,31.53,0,0,0,32,.5Zm0,60A28.5,28.5,0,1,1,60.5,32,28.54,28.54,0,0,1,32,60.5Z" fill="#fff"/><path d="M46,11.43a1,1,0,0,0-1.39.26,1,1,0,0,0,.27,1.39A22.88,22.88,0,1,1,32,9.14a1,1,0,0,0,0-2,24.86,24.86,0,1,0,14,4.29Z" fill="#fff"/><path d="M35.55,9.41a22.66,22.66,0,0,1,6.58,2.09,1,1,0,0,0,.45.1A1,1,0,0,0,43,9.71a24.73,24.73,0,0,0-7.16-2.28,1,1,0,0,0-.31,2Z" fill="#fff"/><path d="M45.9,27.48a1,1,0,0,0-.81-.68l-8.42-1.22L32.9,17.94a1,1,0,0,0-1.8,0l-3.77,7.64L18.91,26.8a1,1,0,0,0-.56,1.71l6.1,5.94L23,42.84a1,1,0,0,0,.4,1,1,1,0,0,0,1.05.08l7.54-4,7.54,4A.92.92,0,0,0,40,44a1,1,0,0,0,.59-.19,1,1,0,0,0,.4-1l-1.44-8.39,6.1-5.94A1,1,0,0,0,45.9,27.48Zm-8.12,5.91a1,1,0,0,0-.29.88l1.18,6.92-6.2-3.27a1.06,1.06,0,0,0-.94,0l-6.2,3.27,1.18-6.92a1,1,0,0,0-.29-.88l-5-4.9,6.94-1a1,1,0,0,0,.76-.54L32,20.65l3.1,6.29a1,1,0,0,0,.76.54l6.94,1Z" fill="#fff"/></svg>