<svg xmlns="http://www.w3.org/2000/svg" width="64" height="64" viewBox="0 0 64 64"><title>flipper_r</title><path d="M46.89,36.65a7.33,7.33,0,1,1,8.54,11.78L42.57,55.54a5.44,5.44,0,0,1-2.66.69,5.52,5.52,0,0,1-3.77-9.56Zm2.4,5.88a2.7,2.7,0,0,0,1.17,1.7,2.66,2.66,0,0,0,2,.36,2.7,2.7,0,1,0-2.85-4.09A2.64,2.64,0,0,0,49.29,42.53Z" fill="#fff"/><path d="M11.41,34.72a7.34,7.34,0,0,1,5.7,1.93l10.75,10a5.52,5.52,0,0,1-3.77,9.56,5.44,5.44,0,0,1-2.66-.69L8.57,48.43a7.33,7.33,0,0,1,2.84-13.71Zm-4.5,8.45a5.33,5.33,0,0,0,2.63,3.51L22.4,53.79a3.52,3.52,0,0,0,4.1-5.66l-10.75-10a5.31,5.31,0,0,0-3.64-1.44,4.36,4.36,0,0,0-.51,0,5.34,5.34,0,0,0-4.69,6.46Z" fill="#fff"/><path d="M8.71,41.23a3.44,3.44,0,0,1,4.1-2.64,3.45,3.45,0,0,1,2.63,4.1,3.38,3.38,0,0,1-1.5,2.16,3.34,3.34,0,0,1-1.86.55,3,3,0,0,1-.73-.08,3.44,3.44,0,0,1-2.64-4.09Zm2.15,1.51a1.45,1.45,0,0,0,2.63-.48,1.42,1.42,0,0,0-.2-1.08,1.41,1.41,0,0,0-.91-.63,1.06,1.06,0,0,0-.31,0,1.44,1.44,0,0,0-1.4,1.14h0A1.4,1.4,0,0,0,10.86,42.74Z" fill="#fff"/><path d="M57.11.51H6.89A6.39,6.39,0,0,0,.5,6.89V57.11A6.4,6.4,0,0,0,6.89,63.5H57.11a6.4,6.4,0,0,0,6.39-6.39V6.89A6.39,6.39,0,0,0,57.11.51Zm3.39,56.6a3.4,3.4,0,0,1-3.39,3.39H6.89A3.4,3.4,0,0,1,3.5,57.11V6.89A3.39,3.39,0,0,1,6.89,3.51H57.11A3.39,3.39,0,0,1,60.5,6.89Z" fill="#fff"/><path d="M39.05,26.25V18.39a1,1,0,0,0-2,0v2.95a7,7,0,0,0-4-2.06V8.14a1,1,0,0,0-2,0V19.28A7,7,0,0,0,27,21.34v-6.5a1,1,0,0,0-2,0V26.25a7.05,7.05,0,1,0,14.1,0Zm-7,5.06a5.06,5.06,0,1,1,5-5.06A5.06,5.06,0,0,1,32,31.31Z" fill="#fff"/><path d="M32,22.4a3.86,3.86,0,0,0-3.86,3.85,1,1,0,0,0,2,0A1.86,1.86,0,0,1,32,24.4a1,1,0,0,0,0-2Z" fill="#fff"/><path d="M38.05,16.27a1,1,0,0,0,1-1V12.78a1,1,0,0,0-2,0v2.49A1,1,0,0,0,38.05,16.27Z" fill="#fff"/></svg>