<svg xmlns="http://www.w3.org/2000/svg" width="64" height="64" viewBox="0 0 64 64"><title>player2</title><path d="M32,.5A31.5,31.5,0,1,0,63.5,32,31.53,31.53,0,0,0,32,.5Zm5.68,59.43V52a1,1,0,0,0-2,0v8.22A28,28,0,0,1,32,60.5,28.38,28.38,0,0,1,18.32,57V52a1,1,0,0,0-2,0v3.75a28.58,28.58,0,0,1-6.21-5.56v-6.5A4.76,4.76,0,0,1,14.4,39l4.69-.89L26.22,47a1,1,0,0,0,1.56,0l7.13-8.94,4.76.9a4.74,4.74,0,0,1,4.22,4.72V57.89A27.91,27.91,0,0,1,37.68,59.93Zm-1.15-43A8.43,8.43,0,0,1,47.36,25v2.91a8.43,8.43,0,0,1-8.42,8.42,8.32,8.32,0,0,1-3.88-1,11.63,11.63,0,0,0,3.62-8.43V23.61A11.57,11.57,0,0,0,36.53,16.89Zm.14,6.68c-5.52.73-9.25-2.16-11.91-4.82a1,1,0,0,0-.78-.29,1,1,0,0,0-.73.4C22,20.56,20,22.53,17.36,23a9.67,9.67,0,0,1,19.31.61ZM24.14,21A15.79,15.79,0,0,0,35,25.69a14,14,0,0,0,1.67-.11V26.9a9.68,9.68,0,0,1-19.36,0V25A10.71,10.71,0,0,0,24.14,21Zm8.55,16.73L27,44.81l-5.69-7.13.85-.16a11.58,11.58,0,0,0,9.68,0Zm13.2,19.19V43.72a6.76,6.76,0,0,0-3.61-6c.32-.11.64-.23.95-.37l6.88,1.3a4.07,4.07,0,0,1,3.62,4.05v7.7A28.6,28.6,0,0,1,45.89,56.87Zm4.52-20.18-4.72-.9a10.39,10.39,0,0,0,3.67-7.92V25a10.41,10.41,0,0,0-14.21-9.7,11.67,11.67,0,0,0-19.83,8.35V26.9A11.63,11.63,0,0,0,19.65,36l-5.54,1a6.75,6.75,0,0,0-6,6.71v3.79A28.49,28.49,0,1,1,60.5,32a28.35,28.35,0,0,1-4.77,15.76v-5A6,6,0,0,0,50.41,36.69Z" fill="#fff"/></svg>