<svg xmlns="http://www.w3.org/2000/svg" width="64" height="64" viewBox="0 0 64 64"><title>player1</title><path d="M32,.5A31.5,31.5,0,1,0,63.5,32,31.53,31.53,0,0,0,32,.5ZM42.68,58.42V51a1,1,0,0,0-2,0v8.12a28.58,28.58,0,0,1-17.36,0V51a1,1,0,0,0-2,0v7.39a28.61,28.61,0,0,1-6.21-3.48V42.72A4.76,4.76,0,0,1,19.4,38l4.69-.89L31.22,46a1,1,0,0,0,1.56,0l7.13-8.94,4.76.9a4.74,4.74,0,0,1,4.22,4.72V54.94A28.61,28.61,0,0,1,42.68,58.42ZM29.14,20A15.79,15.79,0,0,0,40,24.69a14,14,0,0,0,1.67-.11V25.9a9.68,9.68,0,0,1-19.36,0V24A10.71,10.71,0,0,0,29.14,20Zm-6.78,2a9.67,9.67,0,0,1,19.31.61c-5.52.73-9.25-2.16-11.91-4.82a1,1,0,0,0-.78-.29,1,1,0,0,0-.73.4C27,19.56,25,21.53,22.36,22ZM37.69,36.68,32,43.81l-5.69-7.13.85-.16a11.58,11.58,0,0,0,9.68,0Zm13.2,16.63V42.72A6.71,6.71,0,0,0,45,36L39.36,35a11.65,11.65,0,0,0,4.32-9.06V22.61a11.68,11.68,0,0,0-23.36,0V25.9A11.65,11.65,0,0,0,24.64,35l-5.53,1a6.75,6.75,0,0,0-6,6.71V53.31a28.5,28.5,0,1,1,37.78,0Z" fill="#fff"/></svg>