<svg xmlns="http://www.w3.org/2000/svg" width="64" height="64" viewBox="0 0 64 64"><title>collections</title><path d="M58.58,10.45A17.42,17.42,0,0,0,45.65,4.83,16.27,16.27,0,0,0,35.48,8.34,20,20,0,0,0,32,11.8a20,20,0,0,0-3.48-3.46A16.27,16.27,0,0,0,18.35,4.83,17.42,17.42,0,0,0,5.42,10.45,20.12,20.12,0,0,0,.32,24.17c0,5.41,2,10.36,6.3,15.55,3.79,4.56,9.19,9.17,15.47,14.52l.08.07c2.11,1.79,4.48,3.82,7,6a4.38,4.38,0,0,0,5.76,0c2.5-2.19,4.92-4.25,7-6.07,6.26-5.33,11.66-9.93,15.45-14.5,4.3-5.19,6.3-10.14,6.3-15.55A20.12,20.12,0,0,0,58.58,10.45ZM18.35,9.94a11.31,11.31,0,0,1,7,2.44,17,17,0,0,1,4,4.64,3,3,0,0,0,5.21,0,16.72,16.72,0,0,1,4-4.64,11.31,11.31,0,0,1,7-2.44,12.31,12.31,0,0,1,9.17,4,15,15,0,0,1,3.75,10.25c0,4.21-1.58,8-5.13,12.29S44.7,45.15,38.61,50.34C36.61,52,34.35,54,32,56c-2.32-2-4.54-3.91-6.53-5.6l-.1-.09c-6.07-5.17-11.31-9.64-14.81-13.86S5.43,28.38,5.43,24.17A15,15,0,0,1,9.18,13.92,12.31,12.31,0,0,1,18.35,9.94Z" fill="#fff"/></svg>