<svg xmlns="http://www.w3.org/2000/svg" width="64" height="64" viewBox="0 0 64 64"><title>controller</title><path d="M56.34,11.86H46.52a15,15,0,0,0-29,0H7.66A6.67,6.67,0,0,0,1,18.53V56.34A6.66,6.66,0,0,0,7.66,63H56.34A6.66,6.66,0,0,0,63,56.34V18.53A6.67,6.67,0,0,0,56.34,11.86ZM32,4.57a11,11,0,1,1-11,11A11,11,0,0,1,32,4.57ZM28.74,30.2a14.55,14.55,0,0,0,6.52,0v2.51a3.26,3.26,0,1,1-6.52,0ZM6,18.53a1.67,1.67,0,0,1,1.66-1.67h9.41a15,15,0,0,0,7.67,11.82v4a7.26,7.26,0,1,0,14.52,0v-4a15,15,0,0,0,7.67-11.82h9.41A1.67,1.67,0,0,1,58,18.53V47.76H6ZM58,56.34A1.67,1.67,0,0,1,56.34,58H7.66A1.67,1.67,0,0,1,6,56.34V51.76H58Z" fill="#fff"/><path d="M49,30.57a6.37,6.37,0,1,0,6.36,6.36A6.37,6.37,0,0,0,49,30.57Zm0,9.73a3.37,3.37,0,1,1,3.36-3.37A3.37,3.37,0,0,1,49,40.3Z" fill="#fff"/><path d="M15.05,30.57a6.37,6.37,0,1,0,6.37,6.36A6.36,6.36,0,0,0,15.05,30.57Zm0,9.73a3.37,3.37,0,1,1,3.37-3.37A3.36,3.36,0,0,1,15.05,40.3Z" fill="#fff"/></svg>