<svg xmlns="http://www.w3.org/2000/svg" width="64" height="64" viewBox="0 0 64 64"><title>Artboard 1</title><path d="M32,31A15,15,0,1,1,47,16,15,15,0,0,1,32,31ZM32,4A12,12,0,1,0,44,16,12,12,0,0,0,32,4Z"/><path d="M32,43a5.51,5.51,0,0,1-5.5-5.5v-9h3v9a2.5,2.5,0,0,0,5,0v-9h3v9A5.51,5.51,0,0,1,32,43Z"/><path d="M54.93,63H9.07A8.08,8.08,0,0,1,1,54.93V25.07A8.08,8.08,0,0,1,9.07,17H19.5v3H9.07A5.07,5.07,0,0,0,4,25.07V54.93A5.07,5.07,0,0,0,9.07,60H54.93A5.07,5.07,0,0,0,60,54.93V25.07A5.07,5.07,0,0,0,54.93,20H45.19V17h9.74A8.08,8.08,0,0,1,63,25.07V54.93A8.08,8.08,0,0,1,54.93,63Z"/><path d="M32,49a11.5,11.5,0,0,1-6.43-21l1.12,1.66a9.5,9.5,0,1,0,10.2-.27l1-1.71A11.5,11.5,0,0,1,32,49Z"/><path d="M13.43,57a6.34,6.34,0,1,1,6.34-6.34A6.35,6.35,0,0,1,13.43,57Zm0-10.68a4.34,4.34,0,1,0,4.34,4.34A4.35,4.35,0,0,0,13.43,46.31Z"/><path d="M50.08,57a6.34,6.34,0,1,1,6.34-6.34A6.35,6.35,0,0,1,50.08,57Zm0-10.68a4.34,4.34,0,1,0,4.34,4.34A4.35,4.35,0,0,0,50.08,46.31Z"/></svg>