<svg xmlns="http://www.w3.org/2000/svg" width="64" height="64" viewBox="0 0 64 64"><title>delete</title><path d="M19.42,29.41a2,2,0,0,0-1.9,2.1l1,20.75a2,2,0,0,0,2,1.9h.1a2,2,0,0,0,1.9-2.09l-1-20.76A2,2,0,0,0,19.42,29.41Z" fill="#fff"/><path d="M32,29.41a2,2,0,0,0-2,2V52.16a2,2,0,0,0,4,0V31.41A2,2,0,0,0,32,29.41Z" fill="#fff"/><path d="M44.58,29.41a2,2,0,0,0-2.09,1.9l-1,20.76a2,2,0,0,0,1.9,2.09h.1a2,2,0,0,0,2-1.9l1-20.75A2,2,0,0,0,44.58,29.41Z" fill="#fff"/><path d="M54.88,9.09H41.67V8.52A7.08,7.08,0,0,0,34.6,1.45H29.4a7.08,7.08,0,0,0-7.07,7.07v.57H9.12A6.65,6.65,0,0,0,6.58,21.88l1.6,34.75a7.53,7.53,0,0,0,7.72,7H48.1a7.53,7.53,0,0,0,7.72-7l1.6-34.75A6.65,6.65,0,0,0,54.88,9.09ZM27.33,8.52A2.07,2.07,0,0,1,29.4,6.45h5.2a2.07,2.07,0,0,1,2.07,2.07v.57H27.33ZM9.12,14.09H54.88a1.64,1.64,0,0,1,1.62,1.68,1.62,1.62,0,0,1-1.62,1.62H9.12a1.65,1.65,0,0,1,0-3.3Zm39,44.52H15.9a2.58,2.58,0,0,1-2.72-2.21l-1.57-34H52.39l-1.57,34A2.58,2.58,0,0,1,48.1,58.61Z" fill="#fff"/></svg>