<svg xmlns="http://www.w3.org/2000/svg" width="64" height="64" viewBox="0 0 64 64"><title>edit</title><polygon points="17.81 46.51 17.78 46.64 17.91 46.61 17.81 46.51" fill="#fff"/><path d="M56,29.75a2.5,2.5,0,0,0-2.5,2.5V55A3.55,3.55,0,0,1,50,58.5H9A3.55,3.55,0,0,1,5.5,55V14A3.55,3.55,0,0,1,9,10.5H32.59a2.5,2.5,0,0,0,0-5H9A8.55,8.55,0,0,0,.5,14V55A8.55,8.55,0,0,0,9,63.5H50A8.55,8.55,0,0,0,58.5,55V32.25A2.5,2.5,0,0,0,56,29.75Z" fill="#fff"/><path d="M57.1,5.39a8.16,8.16,0,0,0-11.54,0L16.74,34.21a2,2,0,0,0-.54,1l-3,13.64a2,2,0,0,0,2.38,2.38l13.65-3a2,2,0,0,0,1-.54l25.41-25.4h0L59,18.86A8.17,8.17,0,0,0,59,7.33ZM17.81,46.51l.11.1-.14,0Zm10-2.07-4.57,1L19,41.2l1-4.57L43.56,13.05l7.82,7.81ZM56.21,16h0l-2,2-7.82-7.81,2-2a4.15,4.15,0,0,1,5.88,0l1.94,1.94a4.16,4.16,0,0,1,0,5.87Z" fill="#fff"/></svg>