<svg xmlns="http://www.w3.org/2000/svg" width="64" height="64" viewBox="0 0 64 64"><title>emulator</title><path d="M56.34,1H7.66A6.66,6.66,0,0,0,1,7.66V56.34A6.66,6.66,0,0,0,7.66,63H56.34A6.66,6.66,0,0,0,63,56.34V7.66A6.66,6.66,0,0,0,56.34,1ZM7.66,6H56.34A1.67,1.67,0,0,1,58,7.66v32.1H41.32a9.37,9.37,0,0,0-4-6.54v0h0a9.39,9.39,0,0,0-10.66,0h0v0a9.37,9.37,0,0,0-4,6.54H6V7.66A1.67,1.67,0,0,1,7.66,6ZM32,46.35A5.41,5.41,0,1,1,37.41,41,5.41,5.41,0,0,1,32,46.35ZM29.65,50a9.06,9.06,0,0,0,4.7,0v1.09a2.35,2.35,0,0,1-4.7,0Zm26.69,8H7.66A1.67,1.67,0,0,1,6,56.34V43.76H23a9.45,9.45,0,0,0,3.63,4.91v2.46a5.35,5.35,0,0,0,10.7,0V48.67A9.45,9.45,0,0,0,41,43.76H58V56.34A1.67,1.67,0,0,1,56.34,58Z" fill="#fff"/><path d="M39,30.83a2,2,0,0,0,2.83,0l8.46-8.46a2,2,0,0,0,0-2.82l-8.46-8.47A2,2,0,0,0,39,13.91l7,7.05L39,28A2,2,0,0,0,39,30.83Z" fill="#fff"/><path d="M22.14,30.83A2,2,0,1,0,25,28l-7-7,7-7a2,2,0,0,0-2.83-2.83l-8.46,8.47a2,2,0,0,0,0,2.82Z" fill="#fff"/></svg>