<svg xmlns="http://www.w3.org/2000/svg" width="64" height="64" viewBox="0 0 64 64"><title>emulator</title><path d="M56.34,1H7.66A6.66,6.66,0,0,0,1,7.66V56.34A6.66,6.66,0,0,0,7.66,63H56.34A6.66,6.66,0,0,0,63,56.34V7.66A6.66,6.66,0,0,0,56.34,1ZM6,7.66A1.67,1.67,0,0,1,7.66,6H56.34A1.67,1.67,0,0,1,58,7.66v34.1H41.77A9.83,9.83,0,0,0,42,40a10,10,0,0,0-19.9,0,9.83,9.83,0,0,0,.18,1.81H6ZM29.65,49.6a9.67,9.67,0,0,0,4.7,0v1.53a2.35,2.35,0,0,1-4.7,0V49.6ZM32,45.89A5.95,5.95,0,1,1,38,40,5.95,5.95,0,0,1,32,45.89ZM58,56.34A1.67,1.67,0,0,1,56.34,58H7.66A1.67,1.67,0,0,1,6,56.34V45.76H24a10.13,10.13,0,0,0,2.7,2.56v2.81A5.35,5.35,0,0,0,32,56.47a5.36,5.36,0,0,0,5.35-5.34V48.32a10.13,10.13,0,0,0,2.7-2.56H58Z" fill="#fff"/><path d="M23,27.39a1.93,1.93,0,0,1-1-.28L11.58,21a2,2,0,0,1,0-3.44L22,11.37a2,2,0,0,1,2,3.45l-7.49,4.42L24,23.67a2,2,0,0,1-1,3.72Z" fill="#fff"/><path d="M41,27.39a2,2,0,0,1-1-3.72l7.49-4.43L40,14.82a2,2,0,0,1,2-3.45l10.42,6.15a2,2,0,0,1,0,3.44L42,27.11A1.93,1.93,0,0,1,41,27.39Z" fill="#fff"/><path d="M31,27.39l-.32,0A2,2,0,0,1,29,25.07l2-12.3a2,2,0,0,1,2.29-1.65A2,2,0,0,1,35,13.42L33,25.71A2,2,0,0,1,31,27.39Z" fill="#fff"/></svg>