<svg xmlns="http://www.w3.org/2000/svg" width="64" height="64" viewBox="0 0 64 64"><title>jump</title><circle cx="7" cy="55.14" r="2.5" fill="#fff"/><circle cx="17" cy="55.14" r="2.5" fill="#fff"/><circle cx="27" cy="55.14" r="2.5" fill="#fff"/><circle cx="37" cy="55.14" r="2.5" fill="#fff"/><path d="M47,50.47a4.67,4.67,0,1,0,4.66,4.66A4.66,4.66,0,0,0,47,50.47Zm0,6.33a1.67,1.67,0,1,1,1.66-1.67A1.66,1.66,0,0,1,47,56.8Z" fill="#fff"/><circle cx="57" cy="55.14" r="2.5" fill="#fff"/><path d="M61.83,31A2,2,0,0,0,60,29.73H55C54.09,6.7,38.4,4.54,33.5,4.44A24.38,24.38,0,0,0,16,11.58c-5.06,5-11.09,14.75-11.09,33.31a2,2,0,0,0,4,0c0-15.36,8.68-26.83,16.44-26.83,5.71,0,11.78,3.11,12.59,11.67H33a2,2,0,0,0-1.44,3.39l13.5,14a2,2,0,0,0,1.44.61,2,2,0,0,0,1.44-.61l13.5-14A2,2,0,0,0,61.83,31ZM46.49,42.89l-8.81-9.16h3.87a.39.39,0,0,0,.39-.37c.77-13.35-8-19.3-16.64-19.3A15.14,15.14,0,0,0,16,17.64a24.8,24.8,0,0,1,2.75-3.2,20.24,20.24,0,0,1,14.67-6C45,8.68,51.44,17.78,51,33.32a.39.39,0,0,0,.39.41h3.94Z" fill="#fff"/></svg>