<svg xmlns="http://www.w3.org/2000/svg" width="64" height="64" viewBox="0 0 64 64"><title>network</title><path d="M56.34,1H7.66A6.66,6.66,0,0,0,1,7.66V56.34A6.66,6.66,0,0,0,7.66,63H56.34A6.66,6.66,0,0,0,63,56.34V7.66A6.66,6.66,0,0,0,56.34,1ZM58,56.34A1.67,1.67,0,0,1,56.34,58H7.66A1.67,1.67,0,0,1,6,56.34V7.66A1.67,1.67,0,0,1,7.66,6H56.34A1.67,1.67,0,0,1,58,7.66Z" fill="#fff"/><circle cx="31.93" cy="43.91" r="3.15" fill="#fff"/><path d="M32,14.94a25.46,25.46,0,0,0-18.78,8.19,2.21,2.21,0,1,0,3.23,3,21.2,21.2,0,0,1,31.1,0,2.26,2.26,0,0,0,1.62.7,2.2,2.2,0,0,0,1.61-3.71A25.42,25.42,0,0,0,32,14.94Z" fill="#fff"/><path d="M45.42,29.12A18.86,18.86,0,0,0,32,23.38h0a18.86,18.86,0,0,0-13.42,5.74,2.2,2.2,0,0,0,1.56,3.76h0a2.19,2.19,0,0,0,1.56-.65,14.14,14.14,0,0,1,20.58,0,2.21,2.21,0,1,0,3.13-3.11Z" fill="#fff"/><path d="M39.6,35.14A11.28,11.28,0,0,0,32,31.89h-.11a11.26,11.26,0,0,0-7.61,3.25,2.22,2.22,0,0,0,1.55,3.78,2.22,2.22,0,0,0,1.56-.64,6.76,6.76,0,0,1,4.5-2H32a6.76,6.76,0,0,1,4.5,2,2.21,2.21,0,0,0,1.55.64h0a2.17,2.17,0,0,0,1.56-.65,2.21,2.21,0,0,0,0-3.12Z" fill="#fff"/></svg>