<svg xmlns="http://www.w3.org/2000/svg" width="64" height="64" viewBox="0 0 64 64"><title>quit</title><path d="M45.5,38.15a2.5,2.5,0,0,0-2.5,2.5V55.79A2.21,2.21,0,0,1,40.79,58H37.15a7.05,7.05,0,0,0,.35-2.21V8.21A7.05,7.05,0,0,0,37.15,6h3.64A2.21,2.21,0,0,1,43,8.21V23.35a2.5,2.5,0,0,0,5,0V8.21A7.21,7.21,0,0,0,40.79,1H8.71A7.21,7.21,0,0,0,1.5,8.21V55.79A7.21,7.21,0,0,0,8.71,63H40.79A7.21,7.21,0,0,0,48,55.79V40.65A2.5,2.5,0,0,0,45.5,38.15ZM19.21,58H8.71A2.21,2.21,0,0,1,6.5,55.79V8.21A2.21,2.21,0,0,1,8.71,6H30.29A2.21,2.21,0,0,1,32.5,8.21V55.79A2.21,2.21,0,0,1,30.29,58Z" fill="#fff"/><path d="M62.68,30.53,57,24.81a2.09,2.09,0,0,0-3.56,1.47A2.07,2.07,0,0,0,54,27.75l2.18,2.17H44.78a2.08,2.08,0,0,0,0,4.16H56.2L54,36.25a2.07,2.07,0,0,0-.62,1.46,2.07,2.07,0,0,0,2.09,2.08,2.1,2.1,0,0,0,1.47-.6l5.71-5.72A2.11,2.11,0,0,0,63.3,32,2,2,0,0,0,62.68,30.53Z" fill="#fff"/><path d="M24.38,28.43a4.56,4.56,0,0,0-.54,0,4.37,4.37,0,0,0-.52.12,3.88,3.88,0,0,0-.94.45,3.69,3.69,0,0,0-1,1,3.55,3.55,0,0,0-.61,2,3.62,3.62,0,0,0,.13.94,3.94,3.94,0,0,0,.36.84,4.21,4.21,0,0,0,.79.94,3.15,3.15,0,0,0,.69.45,3.45,3.45,0,0,0,1.6.4,3.57,3.57,0,0,0,0-7.14Z" fill="#fff"/></svg>