<svg xmlns="http://www.w3.org/2000/svg" width="64" height="64" viewBox="0 0 64 64"><title>scraper</title><path d="M11.24,7.66a6.83,6.83,0,0,1,.3-2,6.83,6.83,0,0,0-.3,2V11h0Z" fill="#fff"/><path d="M60.82,2.52l-.51-.38A6.65,6.65,0,0,0,56.58,1H17.91a7,7,0,0,0-2.6.52,6.5,6.5,0,0,0-1.13.62c-.18.12-.35.25-.51.38a6.69,6.69,0,0,0-1.29,1.42,6.6,6.6,0,0,0-1.14,3.72V11H7.66a6.63,6.63,0,0,0-3.17.8A6.73,6.73,0,0,0,3,13c-.15.15-.29.31-.43.47a7.15,7.15,0,0,0-.72,1.07A6.63,6.63,0,0,0,1,17.66V56.34a6.63,6.63,0,0,0,.8,3.17,7.82,7.82,0,0,0,.43.68,6.35,6.35,0,0,0,1.58,1.58,7.82,7.82,0,0,0,.68.43,6.63,6.63,0,0,0,3.17.8H46.34a6.63,6.63,0,0,0,3.17-.8,7.15,7.15,0,0,0,1.07-.72c.16-.14.32-.28.47-.43a6.73,6.73,0,0,0,1.15-1.54,6.63,6.63,0,0,0,.8-3.17V53h3.58a6.66,6.66,0,0,0,6.66-6.66V7.66A6.64,6.64,0,0,0,60.82,2.52ZM6,17.66A1.67,1.67,0,0,1,7.66,16H46.34A1.67,1.67,0,0,1,48,17.66V38.12L39.91,30a2,2,0,0,0-2.82,0L23.66,43.46l-7.61-7.61a2,2,0,0,0-2.82,0L6,43.08ZM48,56.34A1.67,1.67,0,0,1,46.34,58H7.66A1.67,1.67,0,0,1,6,56.34V48.73l1-.95,7.68-7.69,6.09,6.09,1.52,1.52a2.06,2.06,0,0,0,2.83,0l2.29-2.29L38.5,34.27l8.82,8.82.68.68Zm10.24-10A1.66,1.66,0,0,1,56.58,48H53V17.66A6.66,6.66,0,0,0,46.34,11H16.24V7.66A1.67,1.67,0,0,1,17.91,6H56.58a1.66,1.66,0,0,1,1.66,1.66Z" fill="#fff"/><path d="M24.38,32.07a6.21,6.21,0,1,0-6.2-6.21A6.21,6.21,0,0,0,24.38,32.07Zm0-9.41a3.21,3.21,0,1,1-3.2,3.2A3.21,3.21,0,0,1,24.38,22.66Z" fill="#fff"/></svg>