<svg xmlns="http://www.w3.org/2000/svg" width="64" height="64" viewBox="0 0 64 64"><title>Artboard 2</title><path d="M32,55.9a3.57,3.57,0,0,1-3.57-3.56V48.93h2v3.41a1.57,1.57,0,0,0,3.14,0V48.93h2v3.41A3.57,3.57,0,0,1,32,55.9Z"/><path d="M56.91,63H7.09A6.08,6.08,0,0,1,1,56.93V7.07A6.09,6.09,0,0,1,7.09,1H56.91A6.09,6.09,0,0,1,63,7.07V56.93A6.08,6.08,0,0,1,56.91,63ZM7.09,4A3.08,3.08,0,0,0,4,7.07V56.93A3.08,3.08,0,0,0,7.09,60H56.91A3.08,3.08,0,0,0,60,56.93V7.07A3.08,3.08,0,0,0,56.91,4Z"/><path d="M16.52,36.63a1.55,1.55,0,0,1-1-.38,1.53,1.53,0,0,1-.44-1.65L16.67,30A11.07,11.07,0,0,1,13,22c0-7.52,8.74-13.63,19.49-13.63S52,14.47,52,22,43.2,35.62,32.46,35.62a26.23,26.23,0,0,1-9.84-1.87l-5.41,2.72A1.55,1.55,0,0,1,16.52,36.63ZM32.46,10.36C22.82,10.36,15,15.57,15,22a9.33,9.33,0,0,0,3.52,7l.5.44-1.65,4.78,5.21-2.61.43.18a23.87,23.87,0,0,0,9.48,1.89C42.1,33.62,50,28.4,50,22S42.1,10.36,32.46,10.36Z"/><rect x="37.57" y="44.87" width="23.92" height="2"/><rect x="2.51" y="44.87" width="24.22" height="2"/><path d="M32,51a6.13,6.13,0,1,1,6.12-6.12A6.13,6.13,0,0,1,32,51Zm0-10.25a4.13,4.13,0,1,0,4.12,4.13A4.13,4.13,0,0,0,32,40.74Z"/><path d="M27.4,26H21.56a1,1,0,0,1-.91-.6,1,1,0,0,1,.17-1.07l4.34-4.83h-3.6a1,1,0,0,1,0-2H27.4a1,1,0,0,1,.74,1.67L23.81,24H27.4a1,1,0,0,1,0,2Z"/><path d="M36.12,24.41H30.28a1,1,0,0,1-.91-.59,1,1,0,0,1,.17-1.08l4.34-4.82h-3.6a1,1,0,0,1,0-2h5.84a1,1,0,0,1,.75,1.66l-4.34,4.83h3.59a1,1,0,0,1,0,2Z"/><path d="M44.48,27.14H38.64a1,1,0,0,1-.91-.6,1,1,0,0,1,.17-1.07l4.34-4.83h-3.6a1,1,0,0,1,0-2h5.84a1,1,0,0,1,.74,1.67l-4.34,4.83h3.6a1,1,0,1,1,0,2Z"/></svg>