<svg xmlns="http://www.w3.org/2000/svg" width="64" height="64" viewBox="0 0 64 64"><title>screensaver</title><path d="M56.34,1H7.66A6.66,6.66,0,0,0,1,7.66V56.34A6.66,6.66,0,0,0,7.66,63H56.34A6.66,6.66,0,0,0,63,56.34V7.66A6.66,6.66,0,0,0,56.34,1ZM6,7.66A1.67,1.67,0,0,1,7.66,6H56.34A1.67,1.67,0,0,1,58,7.66v33.1H41.77A9.83,9.83,0,0,0,42,39a10,10,0,0,0-19.9,0,9.83,9.83,0,0,0,.18,1.81H6ZM29.65,48.6a9.67,9.67,0,0,0,4.7,0v1.53a2.35,2.35,0,0,1-4.7,0ZM32,44.89A5.95,5.95,0,1,1,38,39,5.95,5.95,0,0,1,32,44.89ZM58,56.34A1.67,1.67,0,0,1,56.34,58H7.66A1.67,1.67,0,0,1,6,56.34V44.76H24a10.13,10.13,0,0,0,2.7,2.56v2.81a5.35,5.35,0,0,0,10.7,0V47.32a10.13,10.13,0,0,0,2.7-2.56H58Z" fill="#fff"/><path d="M27.08,12.77h6.06l-7.31,8.14a1.68,1.68,0,0,0,1.25,2.81h9.84a1.69,1.69,0,1,0,0-3.37H30.86l7.31-8.14A1.68,1.68,0,0,0,36.92,9.4H27.08a1.69,1.69,0,1,0,0,3.37Z" fill="#fff"/><path d="M20.85,25.25H14.79l7.31-8.13a1.68,1.68,0,0,0-1.25-2.81H11a1.69,1.69,0,1,0,0,3.37h6.06L9.75,25.81A1.69,1.69,0,0,0,11,28.63h9.84a1.69,1.69,0,0,0,0-3.38Z" fill="#fff"/><path d="M43.15,17.68h6.06L41.9,25.81a1.69,1.69,0,0,0,1.25,2.82H53a1.69,1.69,0,0,0,0-3.38H46.93l7.32-8.13a1.71,1.71,0,0,0,.28-1.82,1.68,1.68,0,0,0-1.54-1H43.15a1.69,1.69,0,0,0,0,3.37Z" fill="#fff"/></svg>