<svg xmlns="http://www.w3.org/2000/svg" width="64" height="64" viewBox="0 0 64 64"><title>sort</title><path d="M33,23.94a6,6,0,0,0-.85-6.34L21.64,5.19a6,6,0,0,0-9.09,0L2.06,17.6a5.95,5.95,0,0,0,4.12,9.77V54.61a6.25,6.25,0,0,0,6.24,6.23h9.36A6.24,6.24,0,0,0,28,54.61V27.37A6,6,0,0,0,33,23.94Zm-5.39-1.55H23V54.61a1.23,1.23,0,0,1-1.23,1.23H12.42a1.23,1.23,0,0,1-1.24-1.23V22.39H6.61a1,1,0,0,1-.73-1.57L16.37,8.42a1,1,0,0,1,1.46,0l10.48,12.4A1,1,0,0,1,27.59,22.39Z" fill="#fff"/><path d="M57.82,36.63V9.39a6.25,6.25,0,0,0-6.24-6.23H42.22A6.24,6.24,0,0,0,36,9.39V36.63a5.95,5.95,0,0,0-4.12,9.77L42.36,58.81a6,6,0,0,0,9.09,0L61.94,46.4a5.95,5.95,0,0,0-4.12-9.77Zm.3,6.55L47.63,55.58a1,1,0,0,1-1.46,0L35.69,43.18a1,1,0,0,1,.72-1.57H41V9.39a1.23,1.23,0,0,1,1.23-1.23h9.36a1.23,1.23,0,0,1,1.24,1.23V41.61h4.57A1,1,0,0,1,58.12,43.18Z" fill="#fff"/></svg>