<svg xmlns="http://www.w3.org/2000/svg" width="64" height="64" viewBox="0 0 64 64"><title>storage</title><path d="M54.5,18.2H49.4V4.5A4.2,4.2,0,0,0,45.2.3H18.8a4.2,4.2,0,0,0-4.2,4.2V18.2H9.5a4,4,0,0,0-4,4V41.6A22.2,22.2,0,0,0,27.8,63.8h8.4A22.2,22.2,0,0,0,58.5,41.6V22.2A4,4,0,0,0,54.5,18.2ZM18.6,4.5a.2.2,0,0,1,.2-.2H45.2l.2.2V18.2H18.6ZM10.5,23.2h43v5.3h-43Zm43,18.4A17.3,17.3,0,0,1,36.2,58.8H27.8A17.3,17.3,0,0,1,10.5,41.6V32.5h43Z" style="fill:#fff"/><path d="M25.6,8.8a2,2,0,0,0-2,2v3.3a2,2,0,1,0,4,0V10.8A2,2,0,0,0,25.6,8.8Z" style="fill:#fff"/><path d="M38.4,8.8a2,2,0,0,0-2,2v3.3a2,2,0,1,0,4,0V10.8A2,2,0,0,0,38.4,8.8Z" style="fill:#fff"/></svg>