<svg xmlns="http://www.w3.org/2000/svg" width="64" height="64" viewBox="0 0 64 64"><title>storage</title><path d="M50.5,18.2H47.4V5.3a4.2,4.2,0,0,0-4.2-4.2H20.8a4.2,4.2,0,0,0-4.2,4.2V18.2H13.5a4,4,0,0,0-4,4V40.9A22.3,22.3,0,0,0,31.8,63.2h.4A22.3,22.3,0,0,0,54.5,40.9V22.2A4,4,0,0,0,50.5,18.2ZM20.6,5.3a.2.2,0,0,1,.2-.2H43.2l.2.2V18.2H20.6ZM14.5,23.2h35v5.3h-35Zm35,17.7A17.4,17.4,0,0,1,32.2,58.2h-.4A17.4,17.4,0,0,1,14.5,40.9V32.5h35Z" style="fill:#fff"/><path d="M26.6,8.8a2,2,0,0,0-2,2v3.3a2,2,0,1,0,4,0V10.8A2,2,0,0,0,26.6,8.8Z" style="fill:#fff"/><path d="M37.4,8.8a2,2,0,0,0-2,2v3.3a2,2,0,1,0,4,0V10.8A2,2,0,0,0,37.4,8.8Z" style="fill:#fff"/></svg>