<svg xmlns="http://www.w3.org/2000/svg" width="64" height="64" viewBox="0 0 64 64"><title>ui</title><path d="M56.34,1H7.66A6.66,6.66,0,0,0,1,7.66V56.34A6.66,6.66,0,0,0,7.66,63H56.34A6.66,6.66,0,0,0,63,56.34V7.66A6.66,6.66,0,0,0,56.34,1ZM7.66,6H56.34A1.67,1.67,0,0,1,58,7.66v5H6v-5A1.67,1.67,0,0,1,7.66,6ZM56.34,58H7.66A1.67,1.67,0,0,1,6,56.34V16.62H58V56.34A1.67,1.67,0,0,1,56.34,58Z" fill="#fff"/><path d="M50.05,24.24H28.52a6.28,6.28,0,0,0-11.9,0H14a2,2,0,0,0,0,4h2.67a6.27,6.27,0,0,0,11.9,0H50.05a2,2,0,0,0,0-4Zm-24.2,2A3.29,3.29,0,1,1,22.57,23,3.29,3.29,0,0,1,25.85,26.24Z" fill="#fff"/><path d="M50.05,35.24h-2a6.28,6.28,0,0,0-11.9,0H14a2,2,0,1,0,0,4h22.2a6.27,6.27,0,0,0,11.9,0h2a2,2,0,0,0,0-4Zm-4.67,2A3.28,3.28,0,1,1,42.1,34,3.29,3.29,0,0,1,45.38,37.24Z" fill="#fff"/><path d="M50.05,46.24H35.16a6.28,6.28,0,0,0-11.9,0H14a2,2,0,1,0,0,4h9.31a6.27,6.27,0,0,0,11.9,0H50.05a2,2,0,0,0,0-4Zm-17.55,2A3.29,3.29,0,1,1,29.21,45,3.3,3.3,0,0,1,32.5,48.24Z" fill="#fff"/></svg>