<svg xmlns="http://www.w3.org/2000/svg" width="64" height="64" viewBox="0 0 64 64"><title>update</title><path d="M53.84,4.66h-13a2.5,2.5,0,0,0,0,5h13A4.17,4.17,0,0,1,58,13.82V24.5H6V13.82a4.17,4.17,0,0,1,4.16-4.16h13a2.5,2.5,0,0,0,0-5h-13A9.17,9.17,0,0,0,1,13.82V53.34a9.17,9.17,0,0,0,9.16,9.16H53.84A9.17,9.17,0,0,0,63,53.34V13.82A9.17,9.17,0,0,0,53.84,4.66ZM58,53.34a4.17,4.17,0,0,1-4.16,4.16H10.16A4.17,4.17,0,0,1,6,53.34V29.66H58Z" fill="#fff"/><path d="M24.81,16l5.72,5.72A2.14,2.14,0,0,0,32,22.3a2,2,0,0,0,1.47-.62L39.19,16a2.09,2.09,0,0,0,0-3,2.15,2.15,0,0,0-2.94,0L34.08,15.2V2.78a2.08,2.08,0,0,0-4.16,0V15.2L27.75,13a2,2,0,0,0-1.46-.62h0A2.09,2.09,0,0,0,24.81,16Z" fill="#fff"/><path d="M34.38,44.3H51.24a2.5,2.5,0,0,0,0-5H34.38a2.5,2.5,0,0,0,0,5Z" fill="#fff"/><path d="M34.38,52.3H51.24a2.5,2.5,0,0,0,0-5H34.38a2.5,2.5,0,0,0,0,5Z" fill="#fff"/></svg>